<svg xmlns="http://www.w3.org/2000/svg" xmlns:xlink="http://www.w3.org/1999/xlink" fill="none" version="1.1" width="427" height="97" viewBox="0 0 427 97"><defs><clipPath id="master_svg0_3_0673"><rect x="0" y="0" width="427" height="97" rx="0"/></clipPath><filter id="master_svg1_3_198" filterUnits="objectBoundingBox" color-interpolation-filters="sRGB" x="-20" y="-16" width="100.61862564086914" height="101.99965286254883"><feFlood flood-opacity="0" result="BackgroundImageFix"/><feColorMatrix in="SourceAlpha" type="matrix" values="0 0 0 0 0 0 0 0 0 0 0 0 0 0 0 0 0 0 127 0"/><feOffset dy="4" dx="0"/><feGaussianBlur stdDeviation="5"/><feColorMatrix type="matrix" values="0 0 0 0 0 0 0 0 0 0 0 0 0 0 0 0 0 0 0.3019607961177826 0"/><feBlend mode="normal" in2="BackgroundImageFix" result="effect1_dropShadow"/><feBlend mode="normal" in="SourceGraphic" in2="effect1_dropShadow" result="shape"/></filter><filter id="master_svg2_3_202" filterUnits="objectBoundingBox" color-interpolation-filters="sRGB" x="-20" y="-16" width="100.61862564086914" height="101.99965286254883"><feFlood flood-opacity="0" result="BackgroundImageFix"/><feColorMatrix in="SourceAlpha" type="matrix" values="0 0 0 0 0 0 0 0 0 0 0 0 0 0 0 0 0 0 127 0"/><feOffset dy="4" dx="0"/><feGaussianBlur stdDeviation="5"/><feColorMatrix type="matrix" values="0 0 0 0 0 0 0 0 0 0 0 0 0 0 0 0 0 0 0.3019607961177826 0"/><feBlend mode="normal" in2="BackgroundImageFix" result="effect1_dropShadow"/><feBlend mode="normal" in="SourceGraphic" in2="effect1_dropShadow" result="shape"/></filter><filter id="master_svg3_3_12" filterUnits="objectBoundingBox" color-interpolation-filters="sRGB" x="-20" y="-16" width="100.61862564086914" height="101.99965286254883"><feFlood flood-opacity="0" result="BackgroundImageFix"/><feColorMatrix in="SourceAlpha" type="matrix" values="0 0 0 0 0 0 0 0 0 0 0 0 0 0 0 0 0 0 127 0"/><feOffset dy="4" dx="0"/><feGaussianBlur stdDeviation="5"/><feColorMatrix type="matrix" values="0 0 0 0 0 0 0 0 0 0 0 0 0 0 0 0 0 0 0.3019607961177826 0"/><feBlend mode="normal" in2="BackgroundImageFix" result="effect1_dropShadow"/><feBlend mode="normal" in="SourceGraphic" in2="effect1_dropShadow" result="shape"/></filter><clipPath id="master_svg4_3_43"><rect x="16.9320068359375" y="36.866607666015625" width="41.63001251220703" height="41.63001251220703" rx="0"/></clipPath></defs><g clip-path="url(#master_svg0_3_0673)"><rect x="0" y="0" width="427" height="97" rx="0" fill="#FFFFFF" fill-opacity="1"/><g transform="matrix(0.8153042197227478,-0.579032838344574,0.8153042197227478,0.579032838344574,-49.63052142655579,26.300193219361972)" filter="url(#master_svg1_3_198)"><g><path d="M61.6144,78.27285869140624C61.6108,77.64925869140625,61.6041,77.02605869140625,61.5872,76.40175869140626C61.5517,75.04385869140626,61.4732,73.67355869140624,61.2372,72.33015869140625C60.9978,70.96586869140626,60.6063,69.69728869140624,59.9894,68.45794869140624C59.3839,67.24083869140625,58.5923,66.12706869140625,57.6479,65.16122869140625C56.7038,64.19539869140625,55.6148,63.38582869140625,54.4243,62.76615869140625C53.2136,62.13593869140625,51.9731,61.73569969140625,50.6404,61.49079469140625C49.3262,61.24870869140625,47.9864,61.16895289140625,46.6577,61.13220679140625C46.0477,61.11529519140625,45.4382,61.10819653140625,44.8284,61.10433401140625C44.1045,61.10015869140625,43.3802,61.10015869140625,42.6565,61.10015869140625L26.6099,61.10015869140625L19.9622,61.10015869140625C19.2378,61.10015869140625,18.5142,61.10015869140625,17.7906,61.10443878140625C17.1805,61.10830130140625,16.5704,61.11539999140625,15.9612,61.13231159140625C15.6291,61.14149809140625,15.2963,61.15339879140625,14.9632,61.16978849140625C13.9642,61.21906169140625,12.9636,61.30936069140625,11.9785,61.49089969140625C10.97891,61.67463069140625,10.03111,61.94563269140625,9.10904,62.33553869140625C8.80171,62.46539869140625,8.49714,62.60862869140625,8.194410000000001,62.76615869140625C7.30153,63.23090869140625,6.4656,63.80245869140625,5.7053,64.46660869140625C5.45187,64.68801869140626,5.2068,64.91966869140624,4.97082,65.16112869140625C4.0262899999999995,66.12696869140625,3.23466,67.24072869140625,2.6291,68.45783869140625C2.0122,69.69718869140625,1.621283,70.96576869140625,1.381629,72.33005869140625C1.145854,73.67345869140625,1.0674665,75.04375869140625,1.031743,76.40165869140625C1.015004,77.02595869140625,1.00796131,77.64915869140626,1.00398069,78.27275869140625C0.999387597,79.01325869140625,1,79.75395869140625,1,80.49425869140626L1,90.60145869140625L1,103.70535869140625C1,104.44635869140626,0.999285529,105.18635869140624,1.00398062,105.92745869140626C1.00796125,106.55095869140625,1.0150039,107.17415869140625,1.0317429,107.79735869140626C1.0674664,109.15605869140626,1.1457519999999999,110.52665869140625,1.381629,111.86945869140625C1.621283,113.23335869140625,2.0122,114.50305869140625,2.6291,115.74205869140624C3.23466,116.95955869140624,4.0262899999999995,118.07295869140626,4.97082,119.03835869140624C5.91464,120.00465869140625,7.0039,120.81405869140625,8.19452,121.43415869140625C9.40534,122.06455869140625,10.64576,122.46425869140626,11.9788,122.70915869140626C13.2922,122.95085869140625,14.6329,123.03125869140625,15.9613,123.06765869140625C16.5705,123.08425869140625,17.1806,123.09165869140625,17.7907,123.09515869140625C18.5143,123.10045869140626,19.2379,123.09975869140625,19.9623,123.09975869140625L42.6565,123.09975869140625C43.3802,123.09975869140625,44.1045,123.10045869140626,44.8283,123.09515869140625C45.4381,123.09165869140625,46.0476,123.08425869140625,46.6576,123.06765869140625C47.9864,123.03125869140625,49.3261,122.95075869140625,50.6403,122.70915869140626C51.973,122.46425869140626,53.2135,122.06435869140626,54.4242,121.43415869140625C55.6148,120.81425869140625,56.7037,120.00465869140625,57.6478,119.03835869140624C58.5921,118.07285869140625,59.3839,116.95955869140624,59.9893,115.74205869140624C60.6062,114.50305869140625,60.9977,113.23345869140624,61.2371,111.86945869140625C61.4731,110.52665869140625,61.5516,109.15605869140626,61.5871,107.79735869140626C61.6038,107.17415869140625,61.6106,106.55105869140624,61.6143,105.92745869140626C61.619,105.18635869140624,61.6185,104.44635869140626,61.6185,103.70535869140625L61.6185,80.49425869140626C61.6186,79.75395869140625,61.619,79.01325869140625,61.6144,78.27285869140624Z" fill="#3E5641" fill-opacity="1"/></g></g><g transform="matrix(0.8153042197227478,-0.579032838344574,0.8153042197227478,0.579032838344574,-39.21626235043732,20.24858727949686)" filter="url(#master_svg2_3_202)"><g><path d="M60.6144,65.27285869140624C60.6108,64.64925869140625,60.6041,64.02605869140625,60.5872,63.40175869140625C60.5517,62.04385869140625,60.4732,60.67355869140625,60.2372,59.330158691406254C59.9978,57.96586869140625,59.6063,56.69728869140625,58.9894,55.45794869140625C58.3839,54.24083869140625,57.5923,53.12706869140625,56.6479,52.16122869140625C55.7038,51.19539869140625,54.6148,50.38582869140625,53.4243,49.76615869140625C52.2136,49.13593869140625,50.9731,48.73569969140625,49.6404,48.49079469140625C48.3262,48.24870869140625,46.9864,48.16895289140625,45.6577,48.13220679140625C45.0477,48.11529519140625,44.4382,48.10819653140625,43.8284,48.10433401140625C43.1045,48.10015869140625,42.3802,48.10015869140625,41.6565,48.10015869140625L25.6099,48.10015869140625L18.9622,48.10015869140625C18.2378,48.10015869140625,17.5142,48.10015869140625,16.7906,48.10443878140625C16.1805,48.10830130140625,15.5704,48.11539999140625,14.9612,48.13231159140625C14.6291,48.14149809140625,14.2963,48.15339879140625,13.9632,48.16978849140625C12.9642,48.21906169140625,11.9636,48.30936069140625,10.9785,48.49089969140625C9.97891,48.67463069140625,9.03111,48.94563269140625,8.10904,49.33553869140625C7.80171,49.46539869140625,7.49714,49.60862869140625,7.19441,49.76615869140625C6.30153,50.23090869140625,5.4656,50.80245869140625,4.7053,51.46660869140625C4.45187,51.68801869140625,4.2068,51.91966869140625,3.97082,52.16112869140625C3.02629,53.12696869140625,2.23466,54.24072869140625,1.6291,55.45783869140625C1.0122,56.697188691406254,0.621283,57.965768691406254,0.381629,59.33005869140625C0.145854,60.67345869140625,0.0674665,62.04375869140625,0.031743,63.401658691406254C0.015004,64.02595869140625,0.00796131,64.64915869140626,0.00398069,65.27275869140625C-0.000612403,66.01325869140625,0,66.75395869140625,0,67.49425869140626L0,77.60145869140625L0,90.70535869140625C0,91.44635869140626,-0.000714471,92.18635869140624,0.00398062,92.92745869140626C0.00796125,93.55095869140625,0.0150039,94.17415869140625,0.0317429,94.79735869140626C0.0674664,96.15605869140626,0.145752,97.52665869140625,0.381629,98.86945869140625C0.621283,100.23335869140625,1.0122,101.50305869140625,1.6291,102.74205869140624C2.23466,103.95955869140624,3.02629,105.07295869140626,3.97082,106.03835869140624C4.91464,107.00465869140625,6.0039,107.81405869140625,7.19452,108.43415869140625C8.40534,109.06455869140625,9.64576,109.46425869140626,10.9788,109.70915869140626C12.2922,109.95085869140625,13.6329,110.03125869140625,14.9613,110.06765869140625C15.5705,110.08425869140625,16.1806,110.09165869140625,16.7907,110.09515869140625C17.5143,110.10045869140626,18.2379,110.09975869140625,18.9623,110.09975869140625L41.6565,110.09975869140625C42.3802,110.09975869140625,43.1045,110.10045869140626,43.8283,110.09515869140625C44.4381,110.09165869140625,45.0476,110.08425869140625,45.6576,110.06765869140625C46.9864,110.03125869140625,48.3261,109.95075869140625,49.6403,109.70915869140626C50.973,109.46425869140626,52.2135,109.06435869140626,53.4242,108.43415869140625C54.6148,107.81425869140625,55.7037,107.00465869140625,56.6478,106.03835869140624C57.5921,105.07285869140625,58.3839,103.95955869140624,58.9893,102.74205869140624C59.6062,101.50305869140625,59.9977,100.23345869140624,60.2371,98.86945869140625C60.4731,97.52665869140625,60.5516,96.15605869140626,60.5871,94.79735869140626C60.6038,94.17415869140625,60.6106,93.55105869140624,60.6143,92.92745869140626C60.619,92.18635869140624,60.6185,91.44635869140626,60.6185,90.70535869140625L60.6185,67.49425869140626C60.6186,66.75395869140625,60.619,66.01325869140625,60.6144,65.27285869140624Z" fill="#A24936" fill-opacity="1"/></g></g><g transform="matrix(0.8153042197227478,-0.579032838344574,0.8153042197227478,0.579032838344574,-28.426875974317227,14.651674066550186)" filter="url(#master_svg3_3_12)"><g><path d="M60.57582578125,52.03054912109375C60.57222578125,51.406949121093746,60.56552578125,50.78374912109375,60.54862578125,50.15944912109375C60.51312578125,48.80154912109375,60.43462578125,47.43124912109375,60.19862578125,46.087849121093754C59.95922578125,44.72355912109375,59.56772578125,43.45497912109375,58.95082578125,42.21563912109375C58.34532578125,40.99852912109375,57.55372578125,39.88475912109375,56.60932578125,38.91891912109375C55.66522578125,37.95308912109375,54.57622578125,37.14351912109375,53.38572578125,36.52384912109375C52.17502578125,35.89362912109375,50.93452578125,35.49339012109375,49.60182578125,35.24848512109375C48.28762578125,35.00639912109375,46.94782578125,34.92664332109375,45.61912578125,34.88989722109375C45.00912578125,34.87298562109375,44.39962578125,34.86588696109375,43.78982578125,34.86202444109375C43.06592578125,34.85784912109375,42.34162578125,34.85784912109375,41.61792578125,34.85784912109375L25.57132578125,34.85784912109375L18.92362578125,34.85784912109375C18.19922578125,34.85784912109375,17.47562578125,34.85784912109375,16.75202578125,34.86212921109375C16.14192578125,34.86599173109375,15.53182578125,34.87309042109375,14.92262578125,34.89000202109375C14.59052578125,34.89918852109375,14.25772578125,34.91108922109375,13.92462578125,34.92747892109375C12.92562578125,34.97675212109375,11.92502578125,35.06705112109375,10.93992578125,35.24859012109375C9.94033578125,35.43232112109375,8.99253578125,35.70332312109375,8.07046578125,36.09322912109375C7.76313578125,36.22308912109375,7.45856578125,36.36631912109375,7.15583578125,36.52384912109375C6.26295578125,36.98859912109375,5.42702578125,37.56014912109375,4.66672578125,38.22429912109375C4.41329578125,38.44570912109375,4.16822578125,38.67735912109375,3.93224578125,38.91881912109375C2.98771578125,39.88465912109375,2.19608578125,40.99841912109375,1.59052578125,42.21552912109375C0.97362578125,43.454879121093754,0.58270878125,44.723459121093754,0.34305478125,46.08774912109375C0.10727978125000001,47.43114912109375,0.02889228125,48.80144912109375,-0.00683121875,50.159349121093754C-0.02357021875,50.78364912109375,-0.03061290875,51.40684912109375,-0.03459352875,52.03044912109375C-0.03918662175,52.77094912109375,-0.03857421875,53.511649121093754,-0.03857421875,54.25194912109375L-0.03857421875,64.35914912109375L-0.03857421875,77.46304912109375C-0.03857421875,78.20404912109376,-0.03928868975,78.94404912109374,-0.03459359875,79.68514912109376C-0.03061296875,80.30864912109375,-0.02357031875,80.93184912109375,-0.0068313187500000025,81.55504912109376C0.028892181249999996,82.91374912109376,0.10717778124999999,84.28434912109375,0.34305478125,85.62714912109375C0.58270878125,86.99104912109375,0.97362578125,88.26074912109375,1.59052578125,89.49974912109374C2.19608578125,90.71724912109374,2.98771578125,91.83064912109376,3.93224578125,92.79604912109374C4.87606578125,93.76234912109375,5.96532578125,94.57174912109375,7.15594578125,95.19184912109375C8.36676578125,95.82224912109375,9.60718578125,96.22194912109376,10.94022578125,96.46684912109376C12.25362578125,96.70854912109375,13.59432578125,96.78894912109375,14.92272578125,96.82534912109375C15.53192578125,96.84194912109375,16.14202578125,96.84934912109375,16.75212578125,96.85284912109375C17.47572578125,96.85814912109376,18.19932578125,96.85744912109375,18.92372578125,96.85744912109375L41.61792578125,96.85744912109375C42.34162578125,96.85744912109375,43.06592578125,96.85814912109376,43.78972578125,96.85284912109375C44.39952578125,96.84934912109375,45.00902578125,96.84194912109375,45.61902578125,96.82534912109375C46.94782578125,96.78894912109375,48.28752578125,96.70844912109375,49.60172578125,96.46684912109376C50.93442578125,96.22194912109376,52.17492578125,95.82204912109376,53.38562578125,95.19184912109375C54.57622578125,94.57194912109375,55.66512578125,93.76234912109375,56.60922578125,92.79604912109374C57.55352578125,91.83054912109375,58.34532578125,90.71724912109374,58.95072578125,89.49974912109374C59.56762578125,88.26074912109375,59.95912578125,86.99114912109374,60.19852578125,85.62714912109375C60.43452578125,84.28434912109375,60.51302578125,82.91374912109376,60.54852578125,81.55504912109376C60.56522578125,80.93184912109375,60.57202578125,80.30874912109374,60.57572578125,79.68514912109376C60.58042578125,78.94404912109374,60.57992578125,78.20404912109376,60.57992578125,77.46304912109375L60.57992578125,54.25194912109375C60.58002578125,53.511649121093754,60.58042578125,52.77094912109375,60.57582578125,52.03054912109375Z" fill="#D36135" fill-opacity="1"/></g></g><g transform="matrix(0.8153042197227478,-0.5790327787399292,0.8153042197227478,0.5790327787399292,-26.930230582742297,25.32382035430419)" clip-path="url(#master_svg4_3_43)"><g><path d="M25.839523315429688,42.937713623046875L25.839523315429688,49.876043623046876L28.839523315429688,49.876043623046876L28.839523315429688,44.437713623046875L53.59282331542968,44.437713623046875L53.59282331542968,69.19101362304687L27.339523315429688,69.19101362304687L27.339523315429688,72.19101362304687L55.09282331542968,72.19101362304687Q55.166523315429686,72.19101362304687,55.23992331542969,72.18381362304687Q55.31322331542969,72.17661362304688,55.38552331542969,72.16221362304688Q55.45772331542969,72.14781362304687,55.52832331542969,72.12651362304688Q55.598823315429684,72.10511362304688,55.666923315429685,72.07691362304688Q55.73492331542968,72.04871362304688,55.79992331542969,72.01391362304688Q55.86492331542969,71.97921362304687,55.92622331542969,71.93821362304688Q55.987523315429684,71.89731362304687,56.04442331542968,71.85061362304688Q56.101423315429685,71.80381362304688,56.15352331542969,71.75171362304687Q56.20562331542969,71.69961362304687,56.25242331542969,71.64261362304687Q56.29912331542968,71.58571362304687,56.34002331542969,71.52441362304688Q56.38102331542969,71.46311362304688,56.41572331542969,71.39811362304687Q56.45052331542969,71.33311362304687,56.47872331542969,71.26511362304687Q56.50692331542969,71.19701362304687,56.52832331542969,71.12651362304688Q56.549623315429685,71.05591362304688,56.56402331542969,70.98371362304687Q56.57842331542969,70.91141362304688,56.585623315429686,70.83811362304688Q56.59282331542968,70.76471362304687,56.59282331542968,70.69101362304687L56.59282331542968,42.937713623046875Q56.59282331542968,42.86402332304687,56.585623315429686,42.79068762304688Q56.57842331542969,42.71735262304688,56.56402331542969,42.64507862304688Q56.549623315429685,42.57280362304687,56.52832331542969,42.50228662304688Q56.50692331542969,42.431769623046875,56.47872331542969,42.363688623046876Q56.45052331542969,42.29560762304688,56.41572331542969,42.23061862304687Q56.38102331542969,42.165629623046875,56.34002331542969,42.10435862304688Q56.29912331542968,42.043086623046875,56.25242331542969,41.98612362304687Q56.20562331542969,41.929163623046875,56.15352331542969,41.877053623046876Q56.101423315429685,41.82494362304688,56.04442331542968,41.778193623046874Q55.987523315429684,41.731453623046875,55.92622331542969,41.690513623046876Q55.86492331542969,41.64957362304688,55.79992331542969,41.61483362304688Q55.73492331542968,41.58009362304688,55.666923315429685,41.55189362304687Q55.598823315429684,41.523693623046874,55.52832331542969,41.50230362304688Q55.45772331542969,41.480913623046874,55.38552331542969,41.46653362304688Q55.31322331542969,41.45216362304687,55.23992331542969,41.44493362304687Q55.166523315429686,41.437713623046875,55.09282331542968,41.437713623046875L27.339523315429688,41.437713623046875Q27.26583301542969,41.437713623046875,27.192497315429687,41.44493362304687Q27.119162315429687,41.45216362304687,27.046888315429687,41.46653362304688Q26.97461331542969,41.480913623046874,26.904096315429687,41.50230362304688Q26.833579315429688,41.523693623046874,26.76549831542969,41.55189362304687Q26.69741731542969,41.58009362304688,26.63242831542969,41.61483362304688Q26.567439315429688,41.64957362304688,26.506168315429687,41.690513623046876Q26.444896315429688,41.731453623046875,26.387933315429688,41.778193623046874Q26.330973315429688,41.82494362304688,26.27886331542969,41.877053623046876Q26.226753315429686,41.929163623046875,26.180003315429687,41.98612362304687Q26.133263315429687,42.043086623046875,26.092323315429688,42.10435862304688Q26.05138331542969,42.165629623046875,26.016643315429686,42.23061862304687Q25.981903315429687,42.29560762304688,25.95370331542969,42.363688623046876Q25.925503315429687,42.431769623046875,25.904113315429687,42.50228662304688Q25.882723315429686,42.57280362304687,25.868343315429687,42.64507862304688Q25.853973315429688,42.71735262304688,25.846743315429688,42.79068762304688Q25.839523315429688,42.86402332304687,25.839523315429688,42.937713623046875Z" fill-rule="evenodd" fill="#FFFFFF" fill-opacity="1"/></g><g><path d="M22.370285034179688,49.875946044921875L22.370285034179688,56.814276044921876L25.370285034179688,56.814276044921876L25.370285034179688,51.375946044921875L43.185285034179685,51.375946044921875L43.185285034179685,69.19094604492187L23.870285034179688,69.19094604492187L23.870285034179688,72.19094604492187L44.685285034179685,72.19094604492187Q44.75898503417969,72.19094604492187,44.83228503417969,72.18374604492188Q44.90568503417968,72.17654604492188,44.97788503417969,72.16214604492188Q45.05018503417969,72.14774604492187,45.12068503417969,72.12634604492187Q45.19118503417969,72.10494604492187,45.25928503417968,72.07674604492188Q45.327385034179684,72.04854604492188,45.39238503417968,72.01384604492188Q45.45738503417969,71.97904604492187,45.51868503417968,71.93814604492188Q45.57988503417968,71.89724604492187,45.636885034179684,71.85044604492188Q45.69388503417969,71.80374604492188,45.74598503417968,71.75164604492187Q45.79808503417969,71.69954604492187,45.84478503417969,71.64254604492187Q45.891585034179684,71.58554604492187,45.93248503417969,71.52434604492187Q45.973385034179685,71.46304604492187,46.00818503417969,71.39804604492187Q46.04288503417969,71.33304604492187,46.07108503417969,71.26494604492187Q46.09928503417969,71.19684604492187,46.12068503417969,71.12634604492187Q46.142085034179686,71.05584604492188,46.15648503417969,70.98354604492188Q46.17088503417969,70.91134604492187,46.17808503417969,70.83794604492188Q46.185285034179685,70.76464604492188,46.185285034179685,70.69094604492187L46.185285034179685,49.875946044921875Q46.185285034179685,49.80225574492187,46.17808503417969,49.72892004492188Q46.17088503417969,49.65558504492188,46.15648503417969,49.58331104492188Q46.142085034179686,49.51103604492187,46.12068503417969,49.44051904492188Q46.09928503417969,49.370002044921875,46.07108503417969,49.301921044921876Q46.04288503417969,49.23384004492188,46.00818503417969,49.16885104492187Q45.973385034179685,49.103862044921875,45.93248503417969,49.04259104492188Q45.891585034179684,48.981319044921875,45.84478503417969,48.92435604492187Q45.79808503417969,48.867396044921875,45.74598503417968,48.815286044921876Q45.69388503417969,48.76317604492188,45.636885034179684,48.716426044921874Q45.57988503417968,48.669686044921875,45.51868503417968,48.628746044921876Q45.45738503417969,48.58780604492188,45.39238503417968,48.55306604492188Q45.327385034179684,48.51832604492188,45.25928503417968,48.49012604492187Q45.19118503417969,48.461926044921874,45.12068503417969,48.44053604492188Q45.05018503417969,48.419146044921874,44.97788503417969,48.40476604492188Q44.90568503417968,48.39039604492187,44.83228503417969,48.38316604492187Q44.75898503417969,48.375946044921875,44.685285034179685,48.375946044921875L23.870285034179688,48.375946044921875Q23.79659473417969,48.375946044921875,23.723259034179687,48.38316604492187Q23.649924034179687,48.39039604492187,23.577650034179687,48.40476604492188Q23.50537503417969,48.419146044921874,23.434858034179687,48.44053604492188Q23.364341034179688,48.461926044921874,23.29626003417969,48.49012604492187Q23.22817903417969,48.51832604492188,23.16319003417969,48.55306604492188Q23.098201034179688,48.58780604492188,23.036930034179687,48.628746044921876Q22.975658034179688,48.669686044921875,22.918695034179688,48.716426044921874Q22.861735034179688,48.76317604492188,22.80962503417969,48.815286044921876Q22.757515034179686,48.867396044921875,22.710765034179687,48.92435604492187Q22.664025034179687,48.981319044921875,22.623085034179688,49.04259104492188Q22.58214503417969,49.103862044921875,22.547405034179686,49.16885104492187Q22.512665034179687,49.23384004492188,22.48446503417969,49.301921044921876Q22.456265034179687,49.370002044921875,22.434875034179687,49.44051904492188Q22.413485034179686,49.51103604492187,22.399105034179687,49.58331104492188Q22.384735034179688,49.65558504492188,22.377505034179688,49.72892004492188Q22.370285034179688,49.80225574492187,22.370285034179688,49.875946044921875Z" fill-rule="evenodd" fill="#FFFFFF" fill-opacity="1"/></g><g><path d="M18.901138305664062,70.69100053710937L18.901138305664062,56.814300537109375Q18.901138305664062,56.74061023710937,18.908358305664063,56.66727453710938Q18.915588305664063,56.59393953710938,18.929958305664062,56.52166553710938Q18.94433830566406,56.44939053710937,18.96572830566406,56.37887353710938Q18.987118305664062,56.308356537109375,19.015318305664064,56.240275537109376Q19.043518305664062,56.17219453710938,19.07825830566406,56.10720553710937Q19.112998305664064,56.042216537109375,19.153938305664063,55.98094553710938Q19.194878305664062,55.919673537109375,19.241618305664062,55.86271053710937Q19.28836830566406,55.805750537109375,19.340478305664064,55.753640537109376Q19.392588305664063,55.70153053710938,19.449548305664063,55.654780537109374Q19.506511305664063,55.608040537109375,19.56778330566406,55.567100537109376Q19.629054305664063,55.52616053710938,19.694043305664064,55.49142053710938Q19.759032305664064,55.45668053710938,19.827113305664064,55.42848053710937Q19.895194305664063,55.400280537109374,19.965711305664062,55.37889053710938Q20.036228305664064,55.357500537109374,20.108503305664062,55.34312053710938Q20.180777305664062,55.32875053710937,20.254112305664062,55.32152053710937Q20.327448005664063,55.314300537109375,20.401138305664062,55.314300537109375L34.27783830566406,55.314300537109375Q34.351538305664064,55.314300537109375,34.42483830566406,55.32152053710937Q34.498138305664064,55.32875053710937,34.57043830566406,55.34312053710938Q34.64273830566406,55.357500537109374,34.71323830566406,55.37889053710938Q34.78373830566406,55.400280537109374,34.85183830566406,55.42848053710937Q34.91993830566406,55.45668053710938,34.98493830566406,55.49142053710938Q35.049938305664064,55.52616053710938,35.11113830566406,55.567100537109376Q35.17243830566406,55.608040537109375,35.22943830566406,55.654780537109374Q35.28633830566406,55.70153053710938,35.33843830566406,55.753640537109376Q35.390538305664066,55.805750537109375,35.43733830566406,55.86271053710937Q35.484038305664065,55.919673537109375,35.52503830566406,55.98094553710938Q35.56593830566406,56.042216537109375,35.600738305664066,56.10720553710937Q35.63543830566406,56.17219453710938,35.663638305664065,56.240275537109376Q35.691838305664064,56.308356537109375,35.71323830566406,56.37887353710938Q35.73463830566406,56.44939053710937,35.74893830566406,56.52166553710938Q35.763338305664064,56.59393953710938,35.77053830566406,56.66727453710938Q35.77783830566406,56.74061023710937,35.77783830566406,56.814300537109375L35.77783830566406,70.69100053710937Q35.77783830566406,70.76470053710938,35.77053830566406,70.83800053710938Q35.763338305664064,70.91130053710937,35.74893830566406,70.98360053710937Q35.73463830566406,71.05590053710938,35.71323830566406,71.12640053710938Q35.691838305664064,71.19690053710937,35.663638305664065,71.26500053710937Q35.63543830566406,71.33310053710937,35.600738305664066,71.39810053710937Q35.56593830566406,71.46310053710937,35.52503830566406,71.52430053710938Q35.484038305664065,71.58560053710937,35.43733830566406,71.64260053710937Q35.390538305664066,71.69950053710937,35.33843830566406,71.75160053710937Q35.28633830566406,71.80370053710938,35.22943830566406,71.85050053710937Q35.17243830566406,71.89720053710937,35.11113830566406,71.93820053710938Q35.049938305664064,71.97910053710937,34.98493830566406,72.01390053710938Q34.91993830566406,72.04860053710938,34.85183830566406,72.07680053710938Q34.78373830566406,72.10500053710938,34.71323830566406,72.12640053710938Q34.64273830566406,72.14780053710938,34.57043830566406,72.16210053710938Q34.498138305664064,72.17650053710938,34.42483830566406,72.18370053710937Q34.351538305664064,72.19100053710937,34.27783830566406,72.19100053710937L20.401138305664062,72.19100053710937Q20.327448005664063,72.19100053710937,20.254112305664062,72.18370053710937Q20.180777305664062,72.17650053710938,20.108503305664062,72.16210053710938Q20.036228305664064,72.14780053710938,19.965711305664062,72.12640053710938Q19.895194305664063,72.10500053710938,19.827113305664064,72.07680053710938Q19.759032305664064,72.04860053710938,19.694043305664064,72.01390053710938Q19.629054305664063,71.97910053710937,19.56778330566406,71.93820053710938Q19.506511305664063,71.89720053710937,19.449548305664063,71.85050053710937Q19.392588305664063,71.80370053710938,19.340478305664064,71.75160053710937Q19.28836830566406,71.69950053710937,19.241618305664062,71.64260053710937Q19.194878305664062,71.58560053710937,19.153938305664063,71.52430053710938Q19.112998305664064,71.46310053710937,19.07825830566406,71.39810053710937Q19.043518305664062,71.33310053710937,19.015318305664064,71.26500053710937Q18.987118305664062,71.19690053710937,18.96572830566406,71.12640053710938Q18.94433830566406,71.05590053710938,18.929958305664062,70.98360053710937Q18.915588305664063,70.91130053710937,18.908358305664063,70.83800053710938Q18.901138305664062,70.76470053710938,18.901138305664062,70.69100053710937ZM32.77783830566406,58.314300537109375L21.901138305664062,58.314300537109375L21.901138305664062,69.19100053710937L32.77783830566406,69.19100053710937L32.77783830566406,58.314300537109375Z" fill-rule="evenodd" fill="#FFFFFF" fill-opacity="1"/></g></g><g><path d="M134.784,61.184L129.024,61.184L126.576,54.128L116.568,54.128L114.12,61.184L108.36,61.184L118.8,32.672L124.38,32.672L134.784,61.184ZM121.464,39.908L118.332,49.016L124.812,49.016L121.68,39.908L121.464,39.908ZM137.376,70.03999999999999L137.376,40.34L142.632,40.34L142.632,42.932L142.812,42.932Q143.82,41.492000000000004,145.35,40.664Q146.88,39.836,148.608,39.836Q151.09199999999998,39.836,152.982,41.168Q154.872,42.5,155.916,44.912Q156.96,47.324,156.96,50.528Q156.96,53.876000000000005,155.916,56.396Q154.872,58.916,152.964,60.302Q151.05599999999998,61.688,148.536,61.688Q146.772,61.688,145.296,60.878Q143.82,60.068,142.812,58.592L142.632,58.592L142.632,70.03999999999999L137.376,70.03999999999999ZM142.488,50.78Q142.488,53.480000000000004,143.712,55.1Q144.936,56.72,146.952,56.72Q149.04,56.72,150.336,55.1Q151.632,53.480000000000004,151.632,50.78Q151.632,48.08,150.372,46.442Q149.112,44.804,147.06,44.804Q145.008,44.804,143.748,46.442Q142.488,48.08,142.488,50.78ZM160.524,70.03999999999999L160.524,40.34L165.78,40.34L165.78,42.932L165.96,42.932Q166.96800000000002,41.492000000000004,168.498,40.664Q170.028,39.836,171.756,39.836Q174.24,39.836,176.13,41.168Q178.01999999999998,42.5,179.064,44.912Q180.108,47.324,180.108,50.528Q180.108,53.876000000000005,179.064,56.396Q178.01999999999998,58.916,176.112,60.302Q174.204,61.688,171.684,61.688Q169.92000000000002,61.688,168.44400000000002,60.878Q166.96800000000002,60.068,165.96,58.592L165.78,58.592L165.78,70.03999999999999L160.524,70.03999999999999ZM165.636,50.78Q165.636,53.480000000000004,166.86,55.1Q168.084,56.72,170.1,56.72Q172.188,56.72,173.48399999999998,55.1Q174.78,53.480000000000004,174.78,50.78Q174.78,48.08,173.51999999999998,46.442Q172.26,44.804,170.208,44.804Q168.156,44.804,166.89600000000002,46.442Q165.636,48.08,165.636,50.78ZM199.188,46.568Q202.32,47,203.976,48.674Q205.632,50.348,205.632,53.048Q205.632,56.972,202.626,59.078Q199.62,61.184,194.00400000000002,61.184L183.924,61.184L183.924,32.672L193.752,32.672Q198.828,32.672,201.546,34.58Q204.264,36.488,204.264,40.016Q204.264,42.464,202.96800000000002,44.048Q201.672,45.632000000000005,199.188,46.352000000000004L199.188,46.568ZM189.36,37.604L189.36,44.084L193.10399999999998,44.084Q195.768,44.084,197.208,43.202Q198.648,42.32,198.648,40.7Q198.648,39.224000000000004,197.208,38.414Q195.768,37.604,193.10399999999998,37.604L189.36,37.604ZM193.32,56.216Q196.56,56.216,198.30599999999998,55.244Q200.05200000000002,54.272,200.05200000000002,52.472Q200.05200000000002,50.816,198.30599999999998,49.934Q196.56,49.052,193.32,49.052L189.36,49.052L189.36,56.216L193.32,56.216ZM218.59199999999998,61.688Q215.56799999999998,61.688,213.31799999999998,60.356Q211.06799999999998,59.024,209.862,56.558Q208.656,54.092,208.656,50.744Q208.656,47.432,209.862,44.966Q211.06799999999998,42.5,213.31799999999998,41.168Q215.56799999999998,39.836,218.59199999999998,39.836Q221.61599999999999,39.836,223.848,41.168Q226.07999999999998,42.5,227.286,44.966Q228.49200000000002,47.432,228.49200000000002,50.744Q228.49200000000002,54.092,227.286,56.558Q226.07999999999998,59.024,223.848,60.356Q221.61599999999999,61.688,218.59199999999998,61.688ZM218.59199999999998,56.72Q220.68,56.72,221.904,55.1Q223.128,53.480000000000004,223.128,50.744Q223.128,48.007999999999996,221.904,46.406Q220.68,44.804,218.59199999999998,44.804Q216.46800000000002,44.804,215.244,46.406Q214.01999999999998,48.007999999999996,214.01999999999998,50.744Q214.01999999999998,53.480000000000004,215.244,55.1Q216.46800000000002,56.72,218.59199999999998,56.72ZM241.092,61.688Q238.068,61.688,235.81799999999998,60.356Q233.56799999999998,59.024,232.362,56.558Q231.156,54.092,231.156,50.744Q231.156,47.432,232.362,44.966Q233.56799999999998,42.5,235.81799999999998,41.168Q238.068,39.836,241.092,39.836Q244.116,39.836,246.348,41.168Q248.58,42.5,249.786,44.966Q250.992,47.432,250.992,50.744Q250.992,54.092,249.786,56.558Q248.58,59.024,246.348,60.356Q244.116,61.688,241.092,61.688ZM241.092,56.72Q243.18,56.72,244.404,55.1Q245.628,53.480000000000004,245.628,50.744Q245.628,48.007999999999996,244.404,46.406Q243.18,44.804,241.092,44.804Q238.968,44.804,237.744,46.406Q236.52,48.007999999999996,236.52,50.744Q236.52,53.480000000000004,237.744,55.1Q238.968,56.72,241.092,56.72ZM266.94,45.308L261.432,45.308L261.432,54.056Q261.432,55.316,262.134,56Q262.836,56.684,264.132,56.684Q265.32,56.684,266.50800000000004,56.324L266.50800000000004,61.256Q264.852,61.76,262.908,61.76Q259.632,61.76,257.904,59.96Q256.176,58.16,256.176,54.775999999999996L256.176,45.308L252.936,45.308L252.936,40.34L256.176,40.34L256.176,34.328L261.432,34.328L261.432,40.34L266.94,40.34L266.94,45.308ZM277.272,61.688Q274.068,61.688,271.764,60.248Q269.46000000000004,58.808,268.488,56.324L272.88,54.379999999999995Q273.49199999999996,55.784,274.626,56.558Q275.76,57.332,277.272,57.332Q278.712,57.332,279.46799999999996,56.81Q280.224,56.288,280.224,55.388Q280.224,54.524,279.36,53.948Q278.496,53.372,276.624,52.976Q272.916,52.111999999999995,270.9,50.528Q268.884,48.944,268.884,46.388000000000005Q268.884,43.364000000000004,271.116,41.6Q273.348,39.836,277.05600000000004,39.836Q279.972,39.836,282.222,41.239999999999995Q284.472,42.644,285.552,45.092L281.26800000000003,47.108000000000004Q280.548,45.775999999999996,279.432,45.001999999999995Q278.31600000000003,44.228,277.092,44.228Q275.76,44.228,275.022,44.768Q274.284,45.308,274.284,46.208Q274.284,47.072,275.202,47.647999999999996Q276.12,48.224000000000004,278.38800000000003,48.728Q285.58799999999997,50.348,285.58799999999997,55.1Q285.58799999999997,57.044,284.526,58.538Q283.464,60.032,281.574,60.86Q279.68399999999997,61.688,277.272,61.688ZM301.248,45.308L295.74,45.308L295.74,54.056Q295.74,55.316,296.442,56Q297.144,56.684,298.44,56.684Q299.628,56.684,300.81600000000003,56.324L300.81600000000003,61.256Q299.15999999999997,61.76,297.216,61.76Q293.94,61.76,292.212,59.96Q290.48400000000004,58.16,290.48400000000004,54.775999999999996L290.48400000000004,45.308L287.244,45.308L287.244,40.34L290.48400000000004,40.34L290.48400000000004,34.328L295.74,34.328L295.74,40.34L301.248,40.34L301.248,45.308ZM304.452,61.184L304.236,40.34L309.70799999999997,40.34L309.70799999999997,44.192L309.924,44.192Q312.192,39.836,317.592,39.836L317.808,39.836L317.808,45.056L317.48400000000004,45.056Q309.70799999999997,45.056,309.70799999999997,50.564L309.70799999999997,61.184L304.452,61.184ZM325.332,61.688Q322.488,61.688,320.706,60.104Q318.924,58.52,318.924,55.748Q318.924,52.436,321.606,50.546Q324.288,48.656,328.96799999999996,48.656L331.128,48.656L331.128,47.864000000000004Q331.128,46.172,330.174,45.236000000000004Q329.22,44.3,327.528,44.3Q325.152,44.3,323.20799999999997,46.46L319.86,43.724000000000004Q323.172,39.836,328.14,39.836Q330.58799999999997,39.836,332.46000000000004,40.808Q334.332,41.78,335.358,43.525999999999996Q336.384,45.272,336.384,47.576L336.384,61.184L331.128,61.184L331.128,58.664L330.91200000000003,58.664Q330.228,60.104,328.73400000000004,60.896Q327.24,61.688,325.332,61.688ZM326.88,57.332Q328.608,57.332,329.868,56.432Q331.128,55.532,331.128,53.912L331.128,53.012L329.58000000000004,53.012Q326.916,53.012,325.602,53.588Q324.288,54.164,324.288,55.424Q324.288,56.252,324.99,56.792Q325.692,57.332,326.88,57.332ZM340.632,70.03999999999999L340.632,40.34L345.88800000000003,40.34L345.88800000000003,42.932L346.068,42.932Q347.076,41.492000000000004,348.606,40.664Q350.13599999999997,39.836,351.86400000000003,39.836Q354.348,39.836,356.238,41.168Q358.128,42.5,359.172,44.912Q360.216,47.324,360.216,50.528Q360.216,53.876000000000005,359.172,56.396Q358.128,58.916,356.22,60.302Q354.312,61.688,351.79200000000003,61.688Q350.028,61.688,348.552,60.878Q347.076,60.068,346.068,58.592L345.88800000000003,58.592L345.88800000000003,70.03999999999999L340.632,70.03999999999999ZM345.744,50.78Q345.744,53.480000000000004,346.96799999999996,55.1Q348.192,56.72,350.20799999999997,56.72Q352.296,56.72,353.592,55.1Q354.88800000000003,53.480000000000004,354.88800000000003,50.78Q354.88800000000003,48.08,353.628,46.442Q352.368,44.804,350.31600000000003,44.804Q348.264,44.804,347.004,46.442Q345.744,48.08,345.744,50.78ZM387.9,61.184L380.952,61.184L371.52,48.836L369.468,50.96L369.468,61.184L364.032,61.184L364.032,32.672L369.468,32.672L369.468,43.976L379.764,32.672L387.252,32.672L375.3,44.948L387.9,61.184ZM397.008,34.147999999999996Q397.008,35.588,396.126,36.452Q395.244,37.316,393.768,37.316Q392.328,37.316,391.5,36.47Q390.672,35.624,390.672,34.147999999999996Q390.672,32.672,391.5,31.826Q392.328,30.98,393.768,30.98Q395.244,30.98,396.126,31.844Q397.008,32.708,397.008,34.147999999999996ZM396.468,40.34L396.468,61.184L391.212,61.184L391.212,40.34L396.468,40.34ZM413.676,45.308L408.168,45.308L408.168,54.056Q408.168,55.316,408.87,56Q409.572,56.684,410.868,56.684Q412.056,56.684,413.244,56.324L413.244,61.256Q411.588,61.76,409.644,61.76Q406.368,61.76,404.64,59.96Q402.912,58.16,402.912,54.775999999999996L402.912,45.308L399.672,45.308L399.672,40.34L402.912,40.34L402.912,34.328L408.168,34.328L408.168,40.34L413.676,40.34L413.676,45.308Z" fill="#3D3D3D" fill-opacity="1"/></g></g></svg>